# xmcd CD database file
#
# Track frame offsets:
#	150
#	17540
#	35787
#	68255
#	95375
#	120180
#	144100
#	173800
#	201470
#
# Disc length: 2807 seconds
#
# Revision: 0
# Processed by: cddbd v1.5.1PL0 Copyright (c) Steve Scherf et al.
# Submitted via: CDex 1.51
#
DISCID=6a0af509
DTITLE=Thermal Quartet - Soaring
DYEAR=2001
DGENRE=Jazz
TTITLE0=Flight TBA
TTITLE1=G Wiz
TTITLE2=Falling
TTITLE3=Soaring
TTITLE4=Lucky Dog
TTITLE5=Daybreak
TTITLE6=Blue Mountain
TTITLE7=Long Memory
TTITLE8=Two Uptight
EXTD=YEAR: 2001
EXTT0=
EXTT1=
EXTT2=
EXTT3=
EXTT4=
EXTT5=
EXTT6=
EXTT7=
EXTT8=
PLAYORDER=
